HIERARCHY
ROOT ui
{
	 OFFSET 0 0 0
	 CHANNELS 3 XPosition YPosition Z Position
	 EndSite
	 {
	 OFFSET 0 -1 0
	 }
}
ROOT li
{
	 OFFSET 0 0 0
	 CHANNELS 3 XPosition YPosition Z Position
	 EndSite
	 {
	 OFFSET 0 -1 0
	 }
}
ROOT ul
{
	 OFFSET 0 0 0
	 CHANNELS 3 XPosition YPosition Z Position
	 EndSite
	 {
	 OFFSET 0 -1 0
	 }
}
ROOT ll
{
	 OFFSET 0 0 0
	 CHANNELS 3 XPosition YPosition Z Position
	 EndSite
	 {
	 OFFSET 0 -1 0
	 }
}
ROOT tt
{
	 OFFSET 0 0 0
	 CHANNELS 3 XPosition YPosition Z Position
	 EndSite
	 {
	 OFFSET 0 -1 0
	 }
}
ROOT tb
{
	 OFFSET 0 0 0
	 CHANNELS 3 XPosition YPosition Z Position
	 EndSite
	 {
	 OFFSET 0 -1 0
	 }
}
ROOT td
{
	 OFFSET 0 0 0
	 CHANNELS 3 XPosition YPosition Z Position
	 EndSite
	 {
	 OFFSET 0 -1 0
	 }
}
ROOT v
{
	 OFFSET 0 0 0
	 CHANNELS 3 XPosition YPosition Z Position
	 EndSite
	 {
	 OFFSET 0 -1 0
	 }
}
ROOT bn
{
	 OFFSET 0 0 0
	 CHANNELS 3 XPosition YPosition Z Position
	 EndSite
	 {
	 OFFSET 0 -1 0
	 }
}
MOTION
Frames: 21
Frame Time: 0.002
-0.011095631599426269	2.3271499574184417E-4	0		0.5497659912109375	-2.578294921875	0		-0.963466552734375	0.35187127685546876	0		-0.2918822021484375	-3.03857763671875	0		1.655038330078125	-0.6771346435546876	0		3.19418603515625	-0.3752918701171875	0		4.3485830078125	-0.116156005859375	0		5.77605078125	0.24558311462402344	0		-0.296945556640625	5.87569970703125	0		
-0.011141740798950195	2.3646500706672667E-4	0		0.5516648559570313	-2.57634326171875	0		-0.9635006713867188	0.3519073791503906	0		-0.296751953125	-3.021484619140625	0		1.62930078125	-0.656763671875	0		3.2045361328125	-0.3505644226074219	0		4.36261328125	-0.11153067779541016	0		5.7796748046875	0.258946533203125	0		-0.2967921142578125	5.87571337890625	0		
0.01378178310394287	-0.0011768239736557008	0		0.5218327026367188	-2.556875	0		-0.989541259765625	0.35236639404296877	0		-0.28876950073242186	-3.012609619140625	0		1.6355816650390624	-0.6349261474609375	0		3.1862392578125	-0.3643836669921875	0		4.35157080078125	-0.11050833892822266	0		5.771822265625	0.2640879211425781	0		-0.29663925170898436	5.87572119140625	0		
-0.011264582633972169	2.2722899913787842E-4	0		0.5476185913085938	-2.56032958984375	0		-0.8875423583984375	0.354714599609375	0		-0.292650390625	-2.994542724609375	0		1.651050048828125	-0.6012459106445313	0		3.1952734375	-0.35765847778320314	0		4.358400390625	-0.11679169464111328	0		5.7688251953125	0.24998143005371093	0		-0.2964872741699219	5.875724609375	0		
-0.011338818550109863	2.1776700019836425E-4	0		0.537596435546875	-2.551196533203125	0		-0.96365869140625	0.35199441528320313	0		-0.3104403381347656	-2.970247314453125	0		1.654001953125	-0.5983689575195312	0		3.1860712890625	-0.3646409606933594	0		4.3442412109375	-0.12173637390136718	0		5.76876904296875	0.2495836181640625	0		-0.29828695678710937	5.8787587890625	0		
0.013561259269714356	-0.001206212043762207	0		0.5374173583984375	-2.55122802734375	0		-0.911698974609375	0.35316006469726563	0		-0.3153536376953125	-2.95316552734375	0		1.661261962890625	-0.5765628051757813	0		3.18597705078125	-0.3647755126953125	0		4.34415625	-0.12191593933105468	0		5.7657265625	0.23026536560058594	0		-0.2971550598144531	5.8777431640625	0		
-0.011501172065734862	1.9841499626636506E-4	0		0.5112890625	-2.54782763671875	0		-0.97277587890625	0.35319833374023435	0		-0.30738604736328123	-2.943296875	0		1.6734210205078126	-0.5608383178710937	0		3.173799072265625	-0.36970913696289065	0		4.335904296875	-0.1319602813720703	0		5.76515234375	0.2592967529296875	0		-0.26671438598632813	5.8952451171875	0		
0.013397210121154786	-0.0012232290506362915	0		0.5540543823242188	-2.551568359375	0		-0.9998402099609375	0.35367813110351565	0		-0.40096826171875	-2.905733154296875	0		1.654802978515625	-0.5315966186523438	0		3.196033203125	-0.3502054748535156	0		4.34681640625	-0.13231529235839845	0		5.7650908203125	0.2589057312011719	0		-0.2523896942138672	5.9060146484375	0		
-0.0014950920343399048	0.010023491859436035	0		0.52012060546875	-2.537025146484375	0		-0.9688424682617187	0.35719647216796874	0		-0.31584829711914064	-2.88813916015625	0		1.650289794921875	-0.49658053588867185	0		3.167746337890625	-0.3618563232421875	0		4.32776953125	-0.13016058349609375	0		5.765033203125	0.25853643798828124	0		-0.268397216796875	5.89729052734375	0		
0.01324764347076416	-0.0012201499938964844	0		0.543872802734375	-2.542438232421875	0		-0.9829498291015625	0.3544700927734375	0		-0.3207368774414063	-2.871041748046875	0		1.663466064453125	-0.4808525695800781	0		3.176794189453125	-0.3541137390136719	0		4.3205107421875	-0.14118881225585939	0		5.76203076171875	0.24447384643554687	0		-0.29659197998046877	5.87777587890625	0		
-0.01179709815979004	2.1036200225353242E-4	0		0.5079132995605469	-2.530842529296875	0		-0.9830031127929687	0.35451513671875	0		-0.3256111145019531	-2.85393701171875	0		1.6575032958984375	-0.47379522705078125	0		3.1734501953125	-0.3701531982421875	0		4.31432470703125	-0.14821699523925783	0		5.76493017578125	0.25789080810546877	0		-0.2681325988769531	5.89732666015625	0		
0.013124621391296387	-0.0011881190538406373	0		0.5357747192382812	-2.531307373046875	0		-0.9830504150390625	0.3545650939941406	0		-0.458217041015625	-2.820681396484375	0		1.64283544921875	-0.44957708740234376	0		3.170783935546875	-0.34618218994140626	0		4.31834521484375	-0.14339523315429686	0		5.76971142578125	0.2332049560546875	0		-0.252846435546875	5.90710205078125	0		
-0.011906403541564942	2.591809928417206E-4	0		0.4987099914550781	-2.5276728515625	0		-0.983092041015625	0.3546198425292969	0		-0.3163485107421875	-2.82202587890625	0		1.637873291015625	-0.44351080322265624	0		3.16042236328125	-0.3640701904296875	0		4.3182900390625	-0.14348501586914061	0		5.77560498046875	0.26561477661132815	0		-0.25273670959472655	5.90713671875	0		
0.01302822494506836	-0.0011248899698257447	0		0.5447323608398438	-2.520423828125	0		-0.9831285400390625	0.35467938232421875	0		-0.45976812744140627	-2.779566162109375	0		1.6552357177734376	-0.4188035888671875	0		3.176534423828125	-0.3543805847167969	0		4.31902294921875	-0.15656764221191405	0		5.76843994140625	0.265728759765625	0		-0.2678060607910156	5.8974326171875	0		
-0.011990693092346192	3.400940001010895E-4	0		0.5327606811523438	-2.513189453125	0		-0.9162373657226562	0.34961642456054687	0		-0.3229683532714844	-2.786818359375	0		1.6462227783203125	-0.4166420593261719	0		3.17321875	-0.37034890747070315	0		4.31101513671875	-0.15447789001464843	0		5.77327001953125	0.24636904907226562	0		-0.26772369384765626	5.897482421875	0		
0.012954683303833007	-0.0010275859832763671	0		0.5326830444335937	-2.513145263671875	0		-0.9882553100585938	0.3508992919921875	0		-0.4565428161621094	-2.7555048828125	0		1.625201171875	-0.41526324462890624	0		3.160146240234375	-0.37213088989257814	0		4.304861328125	-0.1613968048095703	0		5.76907373046875	0.26203213500976563	0		-0.2676560974121094	5.89754052734375	0		
-0.016121723175048827	-0.0034750750064849855	0		0.5346514892578125	-2.511123779296875	0		-0.9882803344726563	0.3509761047363281	0		-0.4464101867675781	-2.74360595703125	0		1.62516552734375	-0.415222900390625	0		3.15290966796875	-0.3839921875	0		4.309693359375	-0.16947711181640626	0		5.776859375	0.2564918212890625	0		-0.2514540863037109	5.9063359375	0		
0.015948715209960936	0.002057657957077026	0		0.5158034057617188	-2.49873681640625	0		-1.014299072265625	0.35149932861328126	0		-0.46514263916015625	-2.72420947265625	0		1.625134765625	-0.4151668701171875	0		3.170349609375	-0.35624365234375	0		4.31685009765625	-0.15856983947753905	0		5.78046630859375	0.26501409912109375	0		-0.26560015869140624	5.895650390625	0		
-0.001089074969291687	0.0014301799535751342	0		0.5457728881835937	-2.498162353515625	0		-0.9122666625976562	0.35386947631835936	0		-0.4359552307128906	-2.710612060546875	0		1.6192271728515626	-0.4079940185546875	0		3.133940185546875	-0.37857205200195315	0		4.309640625	-0.1693988037109375	0		5.77264013671875	0.270593505859375	0		-0.2675428161621094	5.897771484375	0		
0.012853139877319337	-7.077379822731018E-4	0		0.49701483154296877	-2.481241455078125	0		-0.983276611328125	0.3551721801757812	0		-0.4546342468261719	-2.689193359375	0		1.6071708984375	-0.40970132446289065	0		3.138016845703125	-0.3725589294433594	0		4.29553515625	-0.1740863037109375	0		5.77331298828125	0.2672215576171875	0		-0.26655029296875	5.8968544921875	0		
-0.012149894714355469	8.267269730567932E-4	0		0.5249794921875	-2.48160400390625	0		-0.9883658447265625	0.35137255859375	0		-0.4594120483398437	-2.67399755859375	0		1.5951309814453125	-0.41039129638671873	0		3.14972021484375	-0.3886571044921875	0		4.30649267578125	-0.17517340087890626	0		5.77695849609375	0.2810760803222656	0		-0.2949060363769531	5.876443359375	0		
